<?xml version="1.0" encoding="UTF-8" standalone="no"?>
<svg
   xmlns:dc="http://purl.org/dc/elements/1.1/"
   xmlns:cc="http://creativecommons.org/ns#"
   xmlns:rdf="http://www.w3.org/1999/02/22-rdf-syntax-ns#"
   xmlns:svg="http://www.w3.org/2000/svg"
   xmlns="http://www.w3.org/2000/svg"
   xmlns:sodipodi="http://sodipodi.sourceforge.net/DTD/sodipodi-0.dtd"
   xmlns:inkscape="http://www.inkscape.org/namespaces/inkscape"
   id="Layer_1"
   viewBox="0 0 800 480"
   version="1.1"
   sodipodi:docname="Background.svg"
   width="800"
   height="480"
   inkscape:version="0.92.1 r15371">
  <metadata
     id="metadata3697">
    <rdf:RDF>
      <cc:Work
         rdf:about="">
        <dc:format>image/svg+xml</dc:format>
        <dc:type
           rdf:resource="http://purl.org/dc/dcmitype/StillImage" />
        <dc:title></dc:title>
      </cc:Work>
    </rdf:RDF>
  </metadata>
  <defs
     id="defs3695" />
  <sodipodi:namedview
     pagecolor="#000000"
     bordercolor="#666666"
     borderopacity="1"
     objecttolerance="10"
     gridtolerance="10"
     guidetolerance="10"
     inkscape:pageopacity="0"
     inkscape:pageshadow="2"
     inkscape:window-width="1518"
     inkscape:window-height="927"
     id="namedview3693"
     showgrid="false"
     inkscape:snap-grids="true"
     inkscape:snap-to-guides="false"
     inkscape:zoom="1.1992531"
     inkscape:cx="402.46403"
     inkscape:cy="226.66311"
     inkscape:window-x="343"
     inkscape:window-y="22"
     inkscape:window-maximized="0"
     inkscape:current-layer="Layer_1" />
  <style
     id="style3680">.st0{fill:none;stroke:#000;stroke-miterlimit:10}</style>
  <path
     id="path3690-2"
     d="m 670.60827,327.45904 c 2.20877,0 3.86535,-1.65657 3.86535,-3.86534 0,-2.20877 -1.65658,-3.86536 -3.86535,-3.86536 -2.20878,0 -3.86536,1.65659 -3.86536,3.86536 0,2.20877 1.65658,3.86534 3.86536,3.86534 z m 0,-5.89006 c 1.10439,0 2.0247,0.92033 2.0247,2.02472 0,1.10438 -0.92031,2.02471 -2.0247,2.02471 -1.10438,0 -2.02471,-0.92033 -2.02471,-2.02471 0,-1.10439 0.92033,-2.02472 2.02471,-2.02472 z m 0,7.36258 c -2.20878,0 -3.86536,1.65658 -3.86536,3.86536 0,2.20877 1.65658,3.86536 3.86536,3.86536 2.20877,0 3.86535,-1.65659 3.86535,-3.86536 0,-2.20878 -1.65658,-3.86536 -3.86535,-3.86536 z m 0,5.89008 c -1.10438,0 -2.02471,-0.92033 -2.02471,-2.02472 0,-1.10438 0.92033,-2.02471 2.02471,-2.02471 1.10439,0 2.0247,0.92033 2.0247,2.02471 0,1.10439 -0.92031,2.02472 -2.0247,2.02472 z m 0,3.31315 c -2.20878,0 -3.86536,1.65659 -3.86536,3.86536 0,2.20877 1.65658,3.86536 3.86536,3.86536 2.20877,0 3.86535,-1.65659 3.86535,-3.86536 0,-2.20877 -1.65658,-3.86536 -3.86535,-3.86536 z m 0,5.89007 c -1.10438,0 -2.02471,-0.92033 -2.02471,-2.02471 0,-1.10439 0.92033,-2.02471 2.02471,-2.02471 1.10439,0 2.0247,0.92032 2.0247,2.02471 0,1.10438 -0.92031,2.02471 -2.0247,2.02471 z M 658.46,321.75305 v 21.90368 c 0,5.15381 4.04943,9.20322 9.20323,9.20322 h 5.706 c 5.15382,0 9.20323,-4.04941 9.20323,-9.20322 v -21.90368 c 0,-5.15381 -4.04941,-9.20323 -9.20323,-9.20323 h -5.706 c -4.96973,0 -9.20323,4.23349 -9.20323,9.20323 z m 20.43117,0 v 21.90368 c 0,3.1291 -2.39284,5.52193 -5.52194,5.52193 h -5.706 c -3.1291,0 -5.52192,-2.39283 -5.52192,-5.52193 v -21.90368 c 0,-3.1291 2.39282,-5.52193 5.52192,-5.52193 h 5.706 c 3.1291,0 5.52194,2.5769 5.52194,5.52193 z m 60.92536,23.74432 -0.18405,-97.92233 v -5.70601 l -0.18407,-85.95813 c 0,-5.89008 -3.49722,-11.04388 -8.8351,-13.25266 l -13.62078,-5.70599 c -5.52194,-2.20878 -11.04387,-4.04943 -16.74988,-5.52195 0,-0.92031 0,-2.76096 -1.47251,-4.6016 -2.20878,-2.94504 -6.81038,-4.96975 -13.43671,-6.07413 V 42.711191 c 0,-5.337874 -13.25265,-5.337874 -14.72516,-5.337874 -1.47252,0 -14.5411,0.184068 -14.72516,5.337874 V 120.5705 c -6.81039,1.10438 -11.41201,3.31316 -13.80485,6.44226 -1.65657,2.02472 -1.84064,4.04942 -1.84064,4.96975 -4.04943,1.10438 -7.91477,2.39283 -11.9642,3.86534 l -17.67019,6.81039 c -5.52194,2.20878 -9.20323,7.54665 -9.20323,13.43671 l 0.36814,190.87494 c 0,0.5522 0,1.28846 0.18405,1.84065 v 39.942 c 0,1.47252 1.10439,2.76098 2.57691,3.1291 v 3.68129 c 0,2.02471 1.47252,3.68129 3.31315,4.23348 v 2.39284 h 11.78015 v -2.39284 c 1.84063,-0.55219 3.31315,-2.20877 3.31315,-4.23348 v -3.68129 h 0.18407 c 1.65658,0 3.1291,-1.47252 3.1291,-3.1291 v -22.824 h 5.89006 v 4.60162 l 3.49722,0.92031 c 8.65103,2.20879 17.48614,3.6813 26.32124,4.23349 v 2.20878 h 18.40645 v -2.02471 c 7.54665,-0.36813 15.27736,-1.47251 22.63994,-3.1291 l 6.07413,-1.28846 v -5.52193 h 6.81038 v 23.3762 c 0,1.65657 1.28846,2.94504 2.94505,3.12909 v 2.57691 c 0,2.20877 1.47251,4.04941 3.31315,4.78567 v 2.57691 h 11.78013 v -2.57691 c 1.84065,-0.73626 3.1291,-2.5769 3.1291,-4.78567 v -2.57691 c 1.65658,0 2.94503,-1.47252 2.94503,-3.12909 z m -3.68129,1.65659 c 0,8.2829 -6.62632,14.90922 -14.90923,14.90922 l -100.86736,0.18407 c -8.2829,0 -14.90922,-6.62632 -14.90922,-14.90923 v -53.01059 c 17.48612,4.96974 40.49419,7.54665 64.97477,7.54665 24.84872,0 48.04085,-2.76098 65.71104,-7.91478 z m -0.36812,-191.05901 v 36.81292 c -17.48614,5.1538 -40.67827,7.91477 -65.52698,7.91477 -24.66465,0 -47.67271,-2.76097 -65.15885,-7.7307 v -36.44478 -0.18407 c 17.48614,4.96974 40.4942,7.7307 65.15885,7.7307 24.84871,-0.36812 48.04084,-3.12908 65.52698,-8.09884 z m -65.52698,46.38427 c 24.84871,0 48.04084,-2.76096 65.52698,-7.73071 v 3.68129 c -17.48614,5.15382 -40.67827,7.91478 -65.52698,7.91478 -24.66465,0 -47.67271,-2.76096 -65.15885,-7.73072 v -3.68129 c 17.67019,4.78569 40.67827,7.54665 65.15885,7.54665 z m 0,5.52194 c 24.84871,0 48.04084,-2.76097 65.52698,-7.73071 v 40.86233 c -17.30207,4.78568 -39.75795,7.36258 -63.87041,7.36258 -25.40089,0 -49.14523,-2.94504 -66.81542,-8.28291 l -0.18407,0.36814 v -40.31014 c 17.85426,4.96974 40.86234,7.73071 65.34292,7.73071 z m 65.71105,84.1175 c -17.48614,5.15381 -40.67827,7.91477 -65.71105,7.91477 -24.66465,0 -47.48866,-2.76096 -64.97478,-7.7307 v -3.68129 c 17.48612,4.96974 40.4942,7.54663 64.97478,7.54663 24.84871,0 48.04084,-2.76096 65.71105,-7.91477 z m 0,-5.52194 c -17.48614,5.1538 -40.67827,7.91478 -65.71105,7.91478 -24.66465,0 -47.48866,-2.76098 -64.97478,-7.73071 v -39.20575 c 17.67019,5.33786 41.41451,8.09884 66.81542,8.09884 23.92839,0 46.38427,-2.57691 63.87041,-7.36258 z m 0,-39.942 c -17.30207,4.78567 -39.75795,7.36258 -63.87041,7.36258 -25.40091,0 -49.14523,-2.94503 -66.81542,-8.28291 l -0.18407,0.36814 v -4.04943 c 17.67019,5.33788 41.41453,8.09884 66.81542,8.09884 23.9284,0 46.38427,-2.5769 63.87041,-7.36258 z M 670.60827,41.054621 c 5.70601,0 9.3873,1.10438 10.67574,1.840638 -1.28844,0.736258 -4.96973,1.840652 -10.67574,1.840652 -5.706,0 -9.38729,-1.104394 -10.67574,-1.840652 1.28845,-0.920326 4.96974,-1.840638 10.67574,-1.840638 z m -11.04387,5.521928 c 4.04942,1.472516 10.12354,1.656584 11.04387,1.656584 0.92032,0 6.99445,0 11.04387,-1.656584 v 73.441761 c -3.31316,-0.36813 -6.99445,-0.5522 -11.04387,-0.5522 -4.04942,0 -7.73071,0.18407 -11.04387,0.5522 z m -14.54111,82.644981 c 1.84065,-2.20877 7.73072,-5.89006 25.58498,-5.89006 17.85426,0 23.3762,3.49723 25.21684,5.70601 0.5522,0.73625 0.73625,1.28844 0.92032,1.65657 -17.30207,-3.86535 -35.34038,-3.68129 -52.64245,0.5522 0,-0.73626 0.36812,-1.28846 0.92031,-2.02472 z m -33.13161,17.118 17.67019,-6.81039 c 13.43671,-5.33786 27.60968,-7.91477 41.78265,-7.91477 14.90923,0 30.00253,2.94503 44.1755,8.8351 l 13.62078,5.70601 c 3.49722,1.47251 5.89006,4.6016 6.44225,8.09884 -17.48612,4.96973 -40.4942,7.7307 -65.34291,7.7307 -24.66465,0 -47.48866,-2.76097 -64.97478,-7.7307 0.73626,-3.49724 3.31315,-6.62633 6.62632,-7.91479 z m 7.17851,249.03933 c 0,0.36814 -0.36812,0.73626 -0.73626,0.73626 h -9.57135 c -0.36812,0 -0.73626,-0.36812 -0.73626,-0.73626 v -3.68129 h 11.04387 z m 3.31317,-7.36258 h -16.74988 v -29.81845 c 3.31317,4.60161 8.8351,7.54664 14.90923,7.54664 h 2.02472 v 22.27181 z m 82.64498,-19.87896 -3.1291,0.73625 c -21.53555,4.78569 -44.35955,4.41755 -65.71105,-1.10439 l -0.73625,-0.18405 v -1.84066 l 69.5764,-0.18406 z m 16.19767,-2.39285 c 6.07414,0 11.41201,-2.94503 14.90923,-7.54664 v 30.37066 h -16.93393 v -22.82402 z m 10.49168,30.37065 h -8.2829 c -0.73626,0 -1.47252,-0.55219 -1.47252,-1.47252 v -2.57689 h 11.04389 v 2.57689 c 0.18405,0.92033 -0.36814,1.47252 -1.28847,1.47252 z M 670.60827,151.30928 c 2.94503,0 5.33787,-2.20877 5.33787,-4.96975 0,-2.76096 -2.39284,-4.96974 -5.33787,-4.96974 -2.94504,0 -5.33788,2.20878 -5.33788,4.96974 0,2.76098 2.39284,4.96975 5.33788,4.96975 z m 0,-8.09883 c 2.0247,0 3.49722,1.47251 3.49722,3.12908 0,1.65659 -1.47252,3.1291 -3.49722,3.1291 -2.02471,0 -3.49723,-1.47251 -3.49723,-3.1291 0,-1.65657 1.65659,-3.12908 3.49723,-3.12908 z m 0.18406,11.59606 c 5.52195,0 9.93949,-3.68129 9.93949,-8.46698 0,-4.78567 -4.41754,-8.46696 -9.93949,-8.46696 -5.52194,0 -9.93949,3.68129 -9.93949,8.46696 0,4.78569 4.60162,8.46698 9.93949,8.46698 z m 0,-14.90923 c 4.41755,0 8.09884,2.94503 8.09884,6.62632 0,3.68129 -3.68129,6.62632 -8.09884,6.62632 -4.41754,0 -8.09883,-2.94503 -8.09883,-6.62632 0,-3.68129 3.68129,-6.62632 8.09883,-6.62632 z"
     inkscape:connector-curvature="0"
     style="stroke-width:1.84064543;fill:#ffffff" />
  <path
     id="path3690-4"
     d="m 399.90837,327.45904 c 2.20878,0 3.86536,-1.65658 3.86536,-3.86536 0,-2.20878 -1.65658,-3.86536 -3.86536,-3.86536 -2.20877,0 -3.86535,1.65658 -3.86535,3.86536 0,2.20878 1.65658,3.86536 3.86535,3.86536 z m 0,-5.89007 c 1.10439,0 2.02471,0.92033 2.02471,2.02471 0,1.10439 -0.92032,2.02471 -2.02471,2.02471 -1.10439,0 -2.02471,-0.92032 -2.02471,-2.02471 0,-1.10438 0.92032,-2.02471 2.02471,-2.02471 z m 0,7.36258 c -2.20877,0 -3.86535,1.65659 -3.86535,3.86536 0,2.20877 1.65658,3.86535 3.86535,3.86535 2.20878,0 3.86536,-1.65658 3.86536,-3.86535 0,-2.20877 -1.65658,-3.86536 -3.86536,-3.86536 z m 0,5.89007 c -1.10439,0 -2.02471,-0.92032 -2.02471,-2.02471 0,-1.10439 0.92032,-2.0247 2.02471,-2.0247 1.10439,0 2.02471,0.92031 2.02471,2.0247 0,1.10439 -0.92032,2.02471 -2.02471,2.02471 z m 0,3.31317 c -2.20877,0 -3.86535,1.65658 -3.86535,3.86534 0,2.20878 1.65658,3.86536 3.86535,3.86536 2.20878,0 3.86536,-1.65658 3.86536,-3.86536 0,-2.20876 -1.65658,-3.86534 -3.86536,-3.86534 z m 0,5.89005 c -1.10439,0 -2.02471,-0.92031 -2.02471,-2.02471 0,-1.10438 0.92032,-2.02471 2.02471,-2.02471 1.10439,0 2.02471,0.92033 2.02471,2.02471 0,1.1044 -0.92032,2.02471 -2.02471,2.02471 z m -12.14826,-22.27181 v 21.90368 c 0,5.15382 4.04942,9.20324 9.20322,9.20324 h 5.70602 c 5.1538,0 9.20321,-4.04942 9.20321,-9.20324 v -21.90368 c 0,-5.1538 -4.04941,-9.20322 -9.20321,-9.20322 h -5.70602 c -4.96974,0 -9.20322,4.23348 -9.20322,9.20322 z m 20.43116,0 v 21.90368 c 0,3.12911 -2.39283,5.52195 -5.52192,5.52195 h -5.70602 c -3.12909,0 -5.52193,-2.39284 -5.52193,-5.52195 v -21.90368 c 0,-3.12909 2.39284,-5.52193 5.52193,-5.52193 h 5.70602 c 3.12909,0 5.52192,2.57691 5.52192,5.52193 z m 60.92537,23.74434 -0.18406,-97.92235 v -5.706 l -0.18407,-85.95815 c 0,-5.89005 -3.49722,-11.04387 -8.83509,-13.25263 l -13.62078,-5.70602 c -5.52194,-2.20876 -11.04387,-4.04941 -16.74988,-5.52192 0,-0.92033 0,-2.76098 -1.47251,-4.60162 -2.20878,-2.94504 -6.8104,-4.96974 -13.43671,-6.07413 V 42.711187 c 0,-5.33787 -13.25265,-5.33787 -14.72517,-5.33787 -1.47251,0 -14.54111,0.18406 -14.72516,5.33787 v 77.859293 c -6.8104,1.10439 -11.412,3.31316 -13.80485,6.44226 -1.65658,2.02472 -1.84064,4.04943 -1.84064,4.96974 -4.04942,1.1044 -7.91478,2.39285 -11.96419,3.86536 l -17.6702,6.8104 c -5.52194,2.20876 -9.20323,7.54663 -9.20323,13.4367 l 0.36813,190.87494 c 0,0.55219 0,1.28845 0.18407,1.84065 v 39.942 c 0,1.47251 1.10438,2.76097 2.57689,3.12909 v 3.68131 c 0,2.02471 1.47253,3.68129 3.31316,4.23347 v 2.39284 h 11.78014 v -2.39284 c 1.84064,-0.55218 3.31317,-2.20876 3.31317,-4.23347 v -3.68131 h 0.18405 c 1.65658,0 3.12911,-1.47251 3.12911,-3.12909 v -22.82401 h 5.89005 v 4.60162 l 3.49724,0.92033 c 8.65103,2.20878 17.48613,3.68129 26.32122,4.23348 v 2.20877 h 18.40647 v -2.02471 c 7.54663,-0.36813 15.27736,-1.47251 22.63994,-3.12909 l 6.07412,-1.28845 v -5.52195 h 6.81038 v 23.37621 c 0,1.65658 1.28846,2.94504 2.94504,3.12909 v 2.57691 c 0,2.20877 1.47252,4.04942 3.31316,4.78567 v 2.57691 h 11.78014 v -2.57691 c 1.84064,-0.73625 3.12909,-2.5769 3.12909,-4.78567 v -2.57691 c 1.65658,0 2.94504,-1.47251 2.94504,-3.12909 z m -3.68129,1.65658 c 0,8.2829 -6.62633,14.90923 -14.90922,14.90923 l -100.86738,0.18405 c -8.28291,0 -14.90923,-6.62632 -14.90923,-14.90923 v -53.01058 c 17.48614,4.96974 40.4942,7.54665 64.97479,7.54665 24.8487,0 48.04084,-2.76098 65.71104,-7.91478 z m -0.36813,-191.05901 v 36.81292 c -17.48613,5.1538 -40.67826,7.91477 -65.52698,7.91477 -24.66465,0 -47.67271,-2.76097 -65.15885,-7.73072 v -36.44477 -0.18407 c 17.48614,4.96974 40.4942,7.73071 65.15885,7.73071 24.84872,-0.36813 48.04085,-3.12909 65.52698,-8.09884 z m -65.52698,46.38427 c 24.84872,0 48.04085,-2.76097 65.52698,-7.73072 v 3.68129 c -17.48613,5.15382 -40.67826,7.91478 -65.52698,7.91478 -24.66465,0 -47.67271,-2.76096 -65.15885,-7.73071 v -3.68129 c 17.67019,4.78568 40.67826,7.54665 65.15885,7.54665 z m 0,5.52193 c 24.84872,0 48.04085,-2.76096 65.52698,-7.7307 v 40.86233 c -17.30207,4.78567 -39.75794,7.36258 -63.8704,7.36258 -25.4009,0 -49.14524,-2.94504 -66.81543,-8.28291 l -0.18406,0.36813 v -40.31013 c 17.85425,4.96974 40.86232,7.7307 65.34291,7.7307 z m 65.71105,84.1175 c -17.48614,5.15381 -40.67828,7.91478 -65.71105,7.91478 -24.66465,0 -47.48866,-2.76097 -64.97478,-7.73071 v -3.68129 c 17.48612,4.96974 40.49419,7.54664 64.97478,7.54664 24.84872,0 48.04085,-2.76097 65.71105,-7.91477 z m 0,-5.52193 c -17.48614,5.1538 -40.67828,7.91477 -65.71105,7.91477 -24.66465,0 -47.48866,-2.76097 -64.97478,-7.73071 v -39.20575 c 17.6702,5.33787 41.41452,8.09885 66.81543,8.09885 23.92839,0 46.38426,-2.57691 63.8704,-7.36259 z m 0,-39.94202 c -17.30207,4.78569 -39.75795,7.3626 -63.8704,7.3626 -25.40091,0 -49.14523,-2.94504 -66.81543,-8.28291 l -0.18407,0.36813 v -4.04942 c 17.67019,5.33787 41.41453,8.09884 66.81543,8.09884 23.92839,0 46.38427,-2.57691 63.8704,-7.36258 z M 399.90837,41.054607 c 5.706,0 9.38729,1.10439 10.67574,1.84064 -1.28845,0.73627 -4.96974,1.84065 -10.67574,1.84065 -5.706,0 -9.38729,-1.10438 -10.67574,-1.84065 1.28845,-0.92031 4.96974,-1.84064 10.67574,-1.84064 z m -11.04387,5.52193 c 4.04942,1.47253 10.12354,1.65658 11.04387,1.65658 0.92032,0 6.99445,0 11.04387,-1.65658 v 73.441743 c -3.31315,-0.36812 -6.99445,-0.55218 -11.04387,-0.55218 -4.04942,0 -7.73071,0.18406 -11.04387,0.55218 z m -14.54111,82.644983 c 1.84066,-2.20878 7.73073,-5.89007 25.58498,-5.89007 17.85426,0 23.3762,3.49723 25.21684,5.70601 0.5522,0.73625 0.73626,1.28844 0.92033,1.65658 -17.30207,-3.86536 -35.34039,-3.6813 -52.64247,0.55218 0,-0.73625 0.36814,-1.28845 0.92032,-2.0247 z m -33.1316,17.11801 17.67019,-6.8104 c 13.43671,-5.33787 27.60968,-7.91478 41.78264,-7.91478 14.90923,0 30.00253,2.94504 44.1755,8.83511 l 13.62077,5.706 c 3.49724,1.47251 5.89007,4.60161 6.44227,8.09883 -17.48614,4.96974 -40.4942,7.73072 -65.34292,7.73072 -24.66465,0 -47.48866,-2.76098 -64.97478,-7.73072 0.73626,-3.49722 3.31316,-6.62632 6.62633,-7.91476 z m 7.1785,249.03933 c 0,0.36813 -0.36812,0.73625 -0.73625,0.73625 h -9.57136 c -0.36813,0 -0.73626,-0.36812 -0.73626,-0.73625 v -3.68129 h 11.04387 z m 3.31317,-7.36258 h -16.74987 v -29.81846 c 3.31316,4.60161 8.83509,7.54665 14.90923,7.54665 h 2.02471 v 22.27181 z m 82.64498,-19.87898 -3.1291,0.73626 c -21.53554,4.78569 -44.35955,4.41754 -65.71104,-1.10438 l -0.73626,-0.18407 v -1.84064 l 69.5764,-0.18407 z m 16.19769,-2.39283 c 6.07412,0 11.412,-2.94504 14.90922,-7.54665 v 30.37064 h -16.93394 v -22.82399 z m 10.49167,30.37064 h -8.28291 c -0.73625,0 -1.47251,-0.55218 -1.47251,-1.47251 v -2.5769 h 11.04387 v 2.5769 c 0.18407,0.92033 -0.36812,1.47251 -1.28845,1.47251 z M 399.90837,151.30927 c 2.94503,0 5.33787,-2.20878 5.33787,-4.96974 0,-2.76098 -2.39284,-4.96975 -5.33787,-4.96975 -2.94504,0 -5.33787,2.20877 -5.33787,4.96975 0,2.76096 2.39283,4.96974 5.33787,4.96974 z m 0,-8.09885 c 2.02471,0 3.49723,1.47252 3.49723,3.12911 0,1.65658 -1.47252,3.12909 -3.49723,3.12909 -2.02471,0 -3.49722,-1.47251 -3.49722,-3.12909 0,-1.65659 1.65658,-3.12911 3.49722,-3.12911 z m 0.18407,11.59607 c 5.52193,0 9.93949,-3.68129 9.93949,-8.46696 0,-4.78569 -4.41756,-8.46698 -9.93949,-8.46698 -5.52194,0 -9.93949,3.68129 -9.93949,8.46698 0,4.78567 4.60162,8.46696 9.93949,8.46696 z m 0,-14.90923 c 4.41754,0 8.09883,2.94503 8.09883,6.62632 0,3.68129 -3.68129,6.62633 -8.09883,6.62633 -4.41755,0 -8.09885,-2.94504 -8.09885,-6.62633 0,-3.68129 3.6813,-6.62632 8.09885,-6.62632 z"
     inkscape:connector-curvature="0"
     style="stroke-width:1.84064555;fill:#ffffff" />
  <path
     id="path3690"
     d="m 129.20848,327.45904 c 2.20878,0 3.86536,-1.65658 3.86536,-3.86535 0,-2.20878 -1.65658,-3.86536 -3.86536,-3.86536 -2.20879,0 -3.86537,1.65658 -3.86537,3.86536 0,2.20877 1.65658,3.86535 3.86537,3.86535 z m 0,-5.89005 c 1.10439,0 2.02472,0.92033 2.02472,2.0247 0,1.10439 -0.92033,2.02471 -2.02472,2.02471 -1.10439,0 -2.02472,-0.92032 -2.02472,-2.02471 0,-1.10437 0.92033,-2.0247 2.02472,-2.0247 z m 0,7.36258 c -2.20879,0 -3.86537,1.65657 -3.86537,3.86534 0,2.20878 1.65658,3.86539 3.86537,3.86539 2.20878,0 3.86536,-1.65661 3.86536,-3.86539 0,-2.20877 -1.65658,-3.86534 -3.86536,-3.86534 z m 0,5.89006 c -1.10439,0 -2.02472,-0.92032 -2.02472,-2.02472 0,-1.10437 0.92033,-2.0247 2.02472,-2.0247 1.10439,0 2.02472,0.92033 2.02472,2.0247 0,1.1044 -0.92033,2.02472 -2.02472,2.02472 z m 0,3.31317 c -2.20879,0 -3.86537,1.65658 -3.86537,3.86535 0,2.20878 1.65658,3.86536 3.86537,3.86536 2.20878,0 3.86536,-1.65658 3.86536,-3.86536 0,-2.20877 -1.65658,-3.86535 -3.86536,-3.86535 z m 0,5.89007 c -1.10439,0 -2.02472,-0.92033 -2.02472,-2.02472 0,-1.10439 0.92033,-2.02471 2.02472,-2.02471 1.10439,0 2.02472,0.92032 2.02472,2.02471 0,1.10439 -0.92033,2.02472 -2.02472,2.02472 z m -12.1483,-22.27183 v 21.90369 c 0,5.15381 4.04944,9.20322 9.20325,9.20322 h 5.70604 c 5.15379,0 9.20323,-4.04941 9.20323,-9.20322 v -21.90369 c 0,-5.1538 -4.04944,-9.2032 -9.20323,-9.2032 h -5.70604 c -4.96975,0 -9.20325,4.23347 -9.20325,9.2032 z m 20.43122,0 v 21.90369 c 0,3.12909 -2.39283,5.52194 -5.52193,5.52194 h -5.70604 c -3.12911,0 -5.52195,-2.39285 -5.52195,-5.52194 v -21.90369 c 0,-3.12907 2.39284,-5.52192 5.52195,-5.52192 h 5.70604 c 3.1291,0 5.52193,2.5769 5.52193,5.52192 z m 60.92553,23.74434 -0.18405,-97.92234 v -5.70602 l -0.18409,-85.95813 c 0,-5.89006 -3.49723,-11.04386 -8.8351,-13.25264 l -13.62083,-5.70599 c -5.52193,-2.20878 -11.04389,-4.04943 -16.74991,-5.52196 0,-0.92031 0,-2.76095 -1.47253,-4.6016 -2.20877,-2.94504 -6.8104,-4.96975 -13.43674,-6.07413 V 42.711197 c 0,-5.33788 -13.25269,-5.33788 -14.7252,-5.33788 -1.47252,0 -14.54115,0.18408 -14.72522,5.33788 V 120.5705 c -6.81038,1.10439 -11.41202,3.31316 -13.80488,6.44227 -1.656562,2.02469 -1.840632,4.04942 -1.840632,4.96974 -4.049448,1.10437 -7.914808,2.39284 -11.964248,3.86534 l -17.67025,6.8104 C 63.6813,144.86703 60,150.20488 60,156.09495 l 0.36813,190.87494 c 0,0.5522 0,1.28846 0.18406,1.84065 v 39.942 c 0,1.47252 1.10439,2.76097 2.57691,3.12909 v 3.68129 c 0,2.02472 1.47252,3.6813 3.31318,4.23349 v 2.39285 h 11.78016 v -2.39285 c 1.84064,-0.55219 3.31317,-2.20877 3.31317,-4.23349 v -3.68129 h 0.18406 c 1.65659,0 3.12912,-1.47251 3.12912,-3.12909 v -22.824 h 5.89008 v 4.60163 l 3.49724,0.9203 c 8.65106,2.20878 17.4862,3.6813 26.3213,4.23349 v 2.20878 h 18.40652 v -2.02471 c 7.54665,-0.36812 15.2774,-1.47251 22.64001,-3.12909 l 6.07414,-1.28847 v -5.52193 h 6.81039 v 23.37621 c 0,1.65658 1.28848,2.94502 2.94506,3.12908 v 2.57691 c 0,2.20876 1.47251,4.04942 3.31317,4.78567 v 2.57691 h 11.78015 v -2.57691 c 1.84065,-0.73625 3.12913,-2.57691 3.12913,-4.78567 v -2.57691 c 1.65658,0 2.94502,-1.4725 2.94502,-3.12908 z m -3.6813,1.65658 c 0,8.2829 -6.62635,14.90922 -14.90925,14.90922 L 78.9587,362.24726 c -8.28293,0 -14.90927,-6.62632 -14.90927,-14.90924 v -53.01059 c 17.48618,4.96974 40.49433,7.54665 64.97497,7.54665 24.8488,0 48.04099,-2.76098 65.71123,-7.91477 z M 194.3675,156.09495 v 36.81292 c -17.48617,5.1538 -40.67836,7.91477 -65.52715,7.91477 -24.66473,0 -47.67286,-2.76097 -65.15905,-7.73072 v -36.44477 -0.18406 c 17.48619,4.96974 40.49432,7.73071 65.15905,7.73071 24.84879,-0.36814 48.04098,-3.12911 65.52715,-8.09885 z m -65.52715,46.38427 c 24.84879,0 48.04098,-2.76097 65.52715,-7.73071 v 3.6813 c -17.48617,5.15379 -40.67836,7.91477 -65.52715,7.91477 -24.66473,0 -47.67286,-2.76098 -65.15905,-7.73071 v -3.68128 c 17.67025,4.78566 40.6784,7.54663 65.15905,7.54663 z m 0,5.52193 c 24.84879,0 48.04098,-2.76095 65.52715,-7.7307 v 40.86235 c -17.30211,4.78566 -39.75806,7.36258 -63.87057,7.36258 -25.40098,0 -49.14538,-2.94506 -66.81563,-8.28293 l -0.18407,0.36813 v -40.31013 c 17.85432,4.96975 40.86247,7.7307 65.34312,7.7307 z m 65.71121,84.11752 c -17.48617,5.1538 -40.67836,7.91477 -65.71121,7.91477 -24.66473,0 -47.4888,-2.76097 -64.97499,-7.73071 v -3.68129 c 17.48619,4.96973 40.49434,7.54664 64.97499,7.54664 24.84879,0 48.04098,-2.76097 65.71121,-7.91478 z m 0,-5.52195 c -17.48617,5.15381 -40.67836,7.91478 -65.71121,7.91478 -24.66473,0 -47.4888,-2.76097 -64.97499,-7.73071 v -39.20575 c 17.67025,5.33788 41.41466,8.09883 66.81563,8.09883 23.92845,0 46.3844,-2.57689 63.87057,-7.36258 z m 0,-39.942 c -17.30211,4.78568 -39.75804,7.36259 -63.87057,7.36259 -25.40097,0 -49.14538,-2.94505 -66.81563,-8.28292 l -0.18406,0.36814 v -4.04943 c 17.67025,5.33786 41.41465,8.09885 66.81563,8.09885 23.92846,0 46.3844,-2.57691 63.87057,-7.36259 z M 129.20848,41.054617 c 5.70601,0 9.38732,1.10439 10.67575,1.84064 -1.28843,0.73627 -4.96974,1.84065 -10.67575,1.84065 -5.70602,0 -9.38733,-1.10438 -10.67578,-1.84065 1.28845,-0.92031 4.96976,-1.84064 10.67578,-1.84064 z m -11.04392,5.52194 c 4.04944,1.47252 10.1236,1.65658 11.04392,1.65658 0.92032,0 6.99447,0 11.0439,-1.65658 v 73.441753 c -3.31317,-0.36813 -6.99447,-0.55219 -11.0439,-0.55219 -4.04943,0 -7.73073,0.18406 -11.04392,0.55219 z m -14.54112,82.644993 c 1.84064,-2.20878 7.73073,-5.89008 25.58504,-5.89008 17.85431,0 23.37626,3.49723 25.21691,5.70599 0.55219,0.73626 0.73626,1.28845 0.92032,1.65659 -17.30211,-3.86535 -35.3405,-3.68128 -52.6426,0.5522 0,-0.73626 0.36813,-1.28846 0.92033,-2.0247 z m -33.13173,17.118 17.67026,-6.81041 c 13.43674,-5.33785 27.60974,-7.91476 41.78276,-7.91476 14.90926,0 30.00262,2.94502 44.17563,8.8351 l 13.62081,5.70599 c 3.49724,1.47252 5.89009,4.60161 6.44228,8.09884 -17.48619,4.96975 -40.49431,7.73071 -65.3431,7.73071 -24.66473,0 -47.4888,-2.76096 -64.97499,-7.73071 0.73626,-3.49723 3.31317,-6.62632 6.62635,-7.91476 z m 7.17853,249.03933 c 0,0.36814 -0.36813,0.73625 -0.73626,0.73625 H 67.3626 c -0.36813,0 -0.73626,-0.36811 -0.73626,-0.73625 v -3.6813 h 11.0439 z m 3.31317,-7.36259 H 64.23349 v -29.81846 c 3.31317,4.60161 8.83513,7.54665 14.90929,7.54665 h 2.02471 v 22.27181 z m 82.64524,-19.87897 -3.12912,0.73625 c -21.5356,4.78568 -44.35968,4.41754 -65.71123,-1.10439 l -0.73626,-0.18407 v -1.84063 l 69.57661,-0.18407 z m 16.19773,-2.39284 c 6.07414,0 11.41203,-2.94504 14.90925,-7.54665 v 30.37064 h -16.93397 v -22.82399 z m 10.49169,30.37065 h -8.28292 c -0.73627,0 -1.47254,-0.55221 -1.47254,-1.47252 v -2.57689 h 11.04393 v 2.57689 c 0.18406,0.92031 -0.36813,1.47252 -1.28847,1.47252 z M 129.20848,151.30927 c 2.94503,0 5.33789,-2.20875 5.33789,-4.96972 0,-2.76097 -2.39286,-4.96976 -5.33789,-4.96976 -2.94505,0 -5.3379,2.20879 -5.3379,4.96976 0,2.76097 2.39285,4.96972 5.3379,4.96972 z m 0,-8.09883 c 2.02472,0 3.49723,1.47251 3.49723,3.12911 0,1.65658 -1.47251,3.12908 -3.49723,3.12908 -2.02472,0 -3.49725,-1.4725 -3.49725,-3.12908 0,-1.6566 1.65659,-3.12911 3.49725,-3.12911 z m 0.18406,11.59607 c 5.52195,0 9.93952,-3.68129 9.93952,-8.46696 0,-4.78569 -4.41757,-8.46699 -9.93952,-8.46699 -5.52196,0 -9.9395,3.6813 -9.9395,8.46699 0,4.78567 4.60161,8.46696 9.9395,8.46696 z m 0,-14.90923 c 4.41756,0 8.09886,2.94502 8.09886,6.62632 0,3.68128 -3.6813,6.62633 -8.09886,6.62633 -4.41757,0 -8.09886,-2.94505 -8.09886,-6.62633 0,-3.6813 3.68129,-6.62632 8.09886,-6.62632 z"
     inkscape:connector-curvature="0"
     style="stroke-width:1.84064806;fill:#ffffff" />
  <text
     xml:space="preserve"
     style="font-style:normal;font-weight:normal;font-size:40px;line-height:1.25;font-family:sans-serif;letter-spacing:0px;word-spacing:0px;fill:#ffffff;fill-opacity:1;stroke:none;"
     x="11.673933"
     y="87.255547"
     id="text3776"><tspan
       sodipodi:role="line"
       id="tspan3774"
       x="11.673933"
       y="123.74876" /></text>
</svg>
