<?xml version="1.0" encoding="UTF-8" standalone="no"?>
<!-- Created with Inkscape (http://www.inkscape.org/) -->
<svg
   xmlns:dc="http://purl.org/dc/elements/1.1/"
   xmlns:cc="http://web.resource.org/cc/"
   xmlns:rdf="http://www.w3.org/1999/02/22-rdf-syntax-ns#"
   xmlns:svg="http://www.w3.org/2000/svg"
   xmlns="http://www.w3.org/2000/svg"
   xmlns:sodipodi="http://sodipodi.sourceforge.net/DTD/sodipodi-0.dtd"
   xmlns:inkscape="http://www.inkscape.org/namespaces/inkscape"
   x="0"
   y="0"
   id="svg2"
   sodipodi:version="0.32"
   inkscape:version="0.46dev+devel"
   version="1.0"
   sodipodi:docname="Heat_exchanger1.svg"
   inkscape:output_extension="org.inkscape.output.svg.inkscape">  
  <metadata
     id="metadata7">
    <rdf:RDF>
      <cc:Work
         rdf:about="">
        <dc:format>image/svg+xml</dc:format>
        <dc:type
           rdf:resource="http://purl.org/dc/dcmitype/StillImage" />
      </cc:Work>
    </rdf:RDF>
  </metadata>
  <g>
        <path
           sodipodi:type="arc"
           style="fill:#000000;fill-opacity:1;stroke:#ffffff;stroke-width:0.54306739;stroke-miterlimit:4;stroke-dasharray:none;stroke-dashoffset:0;stroke-opacity:1"
           id="path7460"
           d="M 41.517859,29.571499 A 5.4910717,8.9732141 0 1 1 30.535715,29.571499 A 5.4910717,8.9732141 0 1 1 41.517859,29.571499 z"
           transform="matrix(2.5021986,0,0,1.5311963,-58.256413,-9.846698)" />
        <path
           style="color:#ffffff;fill:none;fill-opacity:1;fill-rule:nonzero;stroke:#ffffff;stroke-width:1.06299213;stroke-linecap:butt;stroke-linejoin:miter;marker:none;marker-start:none;marker-mid:none;marker-end:none;stroke-miterlimit:4;stroke-dasharray:none;stroke-dashoffset:0;stroke-opacity:1;visibility:visible;display:inline;overflow:visible;enable-background:accumulate"
           d="M 54.505243,26.990821 C 27.863698,26.990821 27.863698,26.990821 27.863698,26.990821 C 36.714412,35.390217 36.714412,35.390217 36.714412,35.390217 C 27.863698,43.875322 27.863698,43.875322 27.863698,43.875322 C 54.505243,43.875322 54.505243,43.875322 54.505243,43.875322"
           id="path7843" />
        <path
           style="opacity:1;fill:#000000;fill-opacity:1;stroke:#ffffff;stroke-width:0.09491001000000000;stroke-linecap:square;stroke-miterlimit:4;stroke-dasharray:none;stroke-dashoffset:0;stroke-opacity:1"
           d="M 29.541319,43.057193 C 29.662972,42.938804 31.490184,41.189813 33.601791,39.17055 C 35.713398,37.151285 37.453392,35.463437 37.468444,35.419776 C 37.483495,35.376113 35.662919,33.599435 33.422717,31.4716 L 29.349624,27.602808 L 35.885078,27.579903 C 42.027755,27.558376 42.428005,27.566426 42.54472,27.713832 C 42.851193,28.100909 43.753532,29.694544 43.995996,30.276969 C 45.240112,33.265461 45.365595,36.627619 44.346059,39.656379 C 44.053184,40.526448 43.353461,41.939011 42.80913,42.759058 L 42.468353,43.272451 L 35.894245,43.272451 L 29.320137,43.272451 L 29.541319,43.057193 z"
           id="path2766" />
      </g>
    </g>
  </g>
</svg>
