<?xml version="1.0" encoding="UTF-8" standalone="no"?>
<!-- Created with Inkscape (http://www.inkscape.org/) -->

<svg
   xmlns:dc="http://purl.org/dc/elements/1.1/"
   xmlns:cc="http://creativecommons.org/ns#"
   xmlns:rdf="http://www.w3.org/1999/02/22-rdf-syntax-ns#"
   xmlns:svg="http://www.w3.org/2000/svg"
   xmlns="http://www.w3.org/2000/svg"
   xmlns:sodipodi="http://sodipodi.sourceforge.net/DTD/sodipodi-0.dtd"
   xmlns:inkscape="http://www.inkscape.org/namespaces/inkscape"
   width="138mm"
   height="282.77151mm"
   viewBox="0 0 138 282.77151"
   version="1.1"
   id="svg5631"
   inkscape:version="0.92.1 r15371"
   sodipodi:docname="Kettle3.svg">
  <defs
     id="defs5625" />
  <sodipodi:namedview
     id="base"
     pagecolor="#ffffff"
     bordercolor="#666666"
     borderopacity="1.0"
     inkscape:pageopacity="0.0"
     inkscape:pageshadow="2"
     inkscape:zoom="0.49497475"
     inkscape:cx="346.04842"
     inkscape:cy="560.25455"
     inkscape:document-units="mm"
     inkscape:current-layer="layer1"
     showgrid="false"
     inkscape:window-width="1920"
     inkscape:window-height="1017"
     inkscape:window-x="1912"
     inkscape:window-y="-8"
     inkscape:window-maximized="1" />
  <metadata
     id="metadata5628">
    <rdf:RDF>
      <cc:Work
         rdf:about="">
        <dc:format>image/svg+xml</dc:format>
        <dc:type
           rdf:resource="http://purl.org/dc/dcmitype/StillImage" />
        <dc:title />
      </cc:Work>
    </rdf:RDF>
  </metadata>
  <g
     inkscape:label="Layer 1"
     inkscape:groupmode="layer"
     id="layer1"
     transform="translate(-73.070472,90.363254)">
    <path
       id="path3690-4"
       d="m 141.97885,117.49401 c 2.1992,0 3.84861,-1.65657 3.84861,-3.86536 0,-2.20879 -1.64941,-3.86536 -3.84861,-3.86536 -2.1992,0 -3.8486,1.65657 -3.8486,3.86536 0,2.20879 1.6494,3.86536 3.8486,3.86536 z m 0,-5.89005 c 1.0996,0 2.01593,0.92031 2.01593,2.02469 0,1.10438 -0.91633,2.02473 -2.01593,2.02473 -1.09961,0 -2.01594,-0.92035 -2.01594,-2.02473 0,-1.10438 0.91633,-2.02469 2.01594,-2.02469 z m 0,7.36255 c -2.1992,0 -3.8486,1.65661 -3.8486,3.86537 0,2.20879 1.6494,3.86536 3.8486,3.86536 2.1992,0 3.84861,-1.65657 3.84861,-3.86536 0,-2.20876 -1.64941,-3.86537 -3.84861,-3.86537 z m 0,5.8901 c -1.09961,0 -2.01594,-0.92032 -2.01594,-2.02473 0,-1.10438 0.91633,-2.0247 2.01594,-2.0247 1.0996,0 2.01593,0.92032 2.01593,2.0247 0,1.10441 -0.91633,2.02473 -2.01593,2.02473 z m 0,3.31317 c -2.1992,0 -3.8486,1.65656 -3.8486,3.86532 0,2.20879 1.6494,3.86536 3.8486,3.86536 2.1992,0 3.84861,-1.65657 3.84861,-3.86536 0,-2.20876 -1.64941,-3.86532 -3.84861,-3.86532 z m 0,5.89005 c -1.09961,0 -2.01594,-0.92031 -2.01594,-2.02473 0,-1.10438 0.91633,-2.02469 2.01594,-2.02469 1.0996,0 2.01593,0.92031 2.01593,2.02469 0,1.10442 -0.91633,2.02473 -2.01593,2.02473 z m -12.09562,-22.27181 v 21.90368 c 0,5.15381 4.03187,9.20323 9.16334,9.20323 h 5.68129 c 5.13147,0 9.16333,-4.04942 9.16333,-9.20323 v -21.90368 c 0,-5.1538 -4.03186,-9.20322 -9.16333,-9.20322 h -5.68129 c -4.94821,0 -9.16334,4.23348 -9.16334,9.20322 z m 20.34262,0 v 21.90368 c 0,3.12911 -2.38246,5.52193 -5.49799,5.52193 h -5.68129 c -3.11553,0 -5.498,-2.39282 -5.498,-5.52193 v -21.90368 c 0,-3.12911 2.38247,-5.52193 5.498,-5.52193 h 5.68129 c 3.11553,0 5.49799,2.57688 5.49799,5.52193 z m 60.66136,23.74431 -0.18327,-97.922337 v -5.705991 l -0.18326,-85.958172 c 0,-5.890015 -3.48205,-11.043855 -8.79678,-13.25261 l -13.56179,-5.706029 c -5.498,-2.208756 -10.996,-4.049423 -16.67729,-5.521927 0,-0.920315 0,-2.760983 -1.46613,-4.601613 -2.19921,-2.945045 -6.78088,-4.969738 -13.37848,-6.074116 -15.14638,-2.295442 -25.94086,-0.547302 -29.6062,0.0049 -6.07218,1.340613 -11.07906,3.124146 -13.46155,6.253254 -1.64939,2.024731 -1.83265,4.049424 -1.83265,4.969739 -4.03188,1.104416 -7.88049,2.392856 -11.912365,3.86536 l -17.593628,6.810407 c -5.498,2.208755 -9.163345,7.54662 -9.163345,13.436711 l 0.366531,190.874904 c 0,0.55224 0,1.28848 0.183265,1.84067 v 39.94201 c 0,1.4725 1.099593,2.76094 2.565753,3.12908 v 3.68133 c 0,2.02469 1.466123,3.68126 3.298777,4.23345 v 2.39286 h 11.729098 v -2.39286 c 1.832654,-0.55219 3.298815,-2.20876 3.298815,-4.23345 v -3.68133 h 0.183266 c 1.649388,0 3.115549,-1.47251 3.115549,-3.12908 v -22.824 h 5.864534 v 4.60161 l 3.48208,0.92031 c 8.61354,2.2088 17.41035,3.6813 26.20715,4.23349 v 2.20876 H 151.692 v -2.0247 c 7.51393,-0.36812 15.21116,-1.4725 22.54184,-3.12911 l 6.04778,-1.28844 v -5.52192 h 6.7809 v 23.37618 c 0,1.65657 1.28286,2.94505 2.93228,3.12911 v 2.57688 c 0,2.2088 1.46612,4.04943 3.29878,4.78568 v 2.57692 h 11.7291 v -2.57692 c 1.83265,-0.73625 3.11555,-2.57688 3.11555,-4.78568 v -2.57688 c 1.64938,0 2.93224,-1.47254 2.93224,-3.12911 z m -3.66531,1.65661 c 0,8.28287 -6.59763,14.90922 -14.84465,14.90922 l -100.430292,0.18406 c -8.247018,0 -14.84461,-6.62631 -14.84461,-14.90922 V 84.362408 c 17.410363,4.969739 40.318722,7.54662 64.693242,7.54662 24.74102,0 47.83264,-2.760982 65.42631,-7.914746 z m -0.36653,-191.059009 v 36.8129 c -17.41036,5.153802 -40.50201,7.9147846 -65.24305,7.9147846 -24.55777,0 -47.466132,-2.7609826 -64.876495,-7.7307216 v -36.444774 -0.184063 c 17.410363,4.969739 40.318725,7.730684 64.876495,7.730684 24.74104,-0.368126 47.83269,-3.129071 65.24305,-8.09881 z m -65.24305,46.3842515 c 24.74104,0 47.83269,-2.7609825 65.24305,-7.7307215 v 3.681298 c -17.41036,5.1538015 -40.50201,7.9147841 -65.24305,7.9147841 -24.55777,0 -47.466132,-2.7609826 -64.876495,-7.7307211 v -3.681298 c 17.593628,4.785676 40.501995,7.5466585 64.876495,7.5466585 z m 0,5.5219275 c 24.74104,0 47.83269,-2.7609448 65.24305,-7.7306834 V 31.16775 c -17.2271,4.785676 -39.58568,7.362558 -63.59365,7.362558 -25.29084,0 -48.932267,-2.945008 -66.525895,-8.28291 L 76.55256,30.615524 V -9.6945734 c 17.776893,4.9697386 40.68526,7.7306834 65.05976,7.7306834 z m 65.42631,84.117504 c -17.41036,5.153802 -40.50202,7.914784 -65.42631,7.914784 -24.55777,0 -47.282867,-2.760982 -64.69323,-7.730721 V 78.65638 c 17.410363,4.969738 40.31873,7.546658 64.69323,7.546658 24.74104,0 47.83269,-2.760983 65.42631,-7.914784 z m 0,-5.521927 c -17.41036,5.153801 -40.50202,7.914784 -65.42631,7.914784 -24.55777,0 -47.282867,-2.760983 -64.69323,-7.730721 V 37.609993 c 17.593629,5.337864 41.23505,8.098847 66.5259,8.098847 23.8247,0 46.18328,-2.57692 63.59364,-7.362595 z m 0,-39.942009 c -17.22709,4.785676 -39.58568,7.362595 -63.59364,7.362595 -25.29085,0 -48.932271,-2.945045 -66.5259,-8.28291 l -0.183265,0.368126 v -4.049424 c 17.593628,5.337865 41.235055,8.098848 66.525895,8.098848 23.8247,0 46.18329,-2.57692 63.59365,-7.362596 z m -90.53388,-117.43317 c 1.83265,-2.208794 7.69721,-5.890091 25.4741,-5.890091 17.77689,0 23.2749,3.497234 25.10756,5.706028 0.54981,0.736252 0.73307,1.288441 0.91634,1.656567 -17.22709,-3.865361 -35.18724,-3.681298 -52.41437,0.552189 0,-0.736252 0.36653,-1.288441 0.91637,-2.024693 z m -32.988038,17.118009 17.593588,-6.810406 c 13.37849,-5.337865 27.49006,-7.914784 41.6016,-7.914784 14.84463,0 29.87253,2.945045 43.98409,8.835099 l 13.56175,5.706028 c 3.48208,1.472504 5.86453,4.601575 6.41432,8.09881 -17.41036,4.969738 -40.31871,7.730721 -65.05975,7.730721 -24.55777,0 -47.282864,-2.760983 -64.693227,-7.730721 0.733061,-3.497235 3.298815,-6.626306 6.597629,-7.914747 z M 90.6641,185.41382 c 0,0.36813 -0.366531,0.73625 -0.733061,0.73625 h -9.529876 c -0.366531,0 -0.733099,-0.36812 -0.733099,-0.73625 v -3.68126 H 90.6641 Z m 3.298815,-7.36256 H 77.285614 v -29.81847 c 3.298814,4.60162 8.796814,7.54666 14.844647,7.54666 h 2.015919 v 22.27181 z m 82.286865,-19.87899 -3.11556,0.73625 c -21.44222,4.78572 -44.16733,4.41755 -65.42629,-1.10437 l -0.73306,-0.18407 v -1.84063 l 69.27491,-0.18406 z m 16.12747,-2.39282 c 6.0478,0 11.36257,-2.94504 14.84465,-7.54666 v 30.37066 h -16.86057 v -22.824 z m 10.4462,30.37062 h -8.24698 c -0.73306,0 -1.46616,-0.55215 -1.46616,-1.4725 v -2.57688 h 10.99604 v 2.57688 c 0.18326,0.92035 -0.36653,1.4725 -1.2829,1.4725 z m -60.8446,-244.805814 c 2.93227,0 5.31473,-2.208794 5.31473,-4.969739 0,-2.760982 -2.38246,-4.969776 -5.31473,-4.969776 -2.93228,0 -5.31474,2.208794 -5.31474,4.969776 0,2.760945 2.38246,4.969739 5.31474,4.969739 z m 0,-8.098847 c 2.01593,0 3.48207,1.472503 3.48207,3.129108 0,1.656567 -1.46614,3.129071 -3.48207,3.129071 -2.01594,0 -3.48207,-1.472504 -3.48207,-3.129071 0,-1.656605 1.6494,-3.129108 3.48207,-3.129108 z m 0.18326,11.596043 c 5.498,0 9.89642,-3.681259 9.89642,-8.466935 0,-4.785713 -4.39842,-8.466973 -9.89642,-8.466973 -5.49801,0 -9.89642,3.68126 -9.89642,8.466973 0,4.785676 4.58168,8.466935 9.89642,8.466935 z m 0,-14.909215 c 4.3984,0 8.06374,2.945046 8.06374,6.626305 0,3.681298 -3.66534,6.626344 -8.06374,6.626344 -4.3984,0 -8.06375,-2.945046 -8.06375,-6.626344 0,-3.681259 3.66535,-6.626305 8.06375,-6.626305 z"
       inkscape:connector-curvature="0"
       style="fill:#ffffff;fill-opacity:1;stroke-width:1.83665311"
       sodipodi:nodetypes="sssssssssssssssssssssssssssssssssssssssssssssssscccccccccccccccccscsccccscssccccccccccccscsccccscccsccscscsccscccccsccsccssccscccscsccscccsccscccscccscccsccccccscccsccssssccscccsccccccccccsccccssssssssssssssssssssssssssss" />
  </g>
</svg>
