<?xml version="1.0" encoding="UTF-8" standalone="no"?>
<!-- Svg Vector Icons : http://www.onlinewebfonts.com/icon -->

<svg
   xmlns:dc="http://purl.org/dc/elements/1.1/"
   xmlns:cc="http://creativecommons.org/ns#"
   xmlns:rdf="http://www.w3.org/1999/02/22-rdf-syntax-ns#"
   xmlns:svg="http://www.w3.org/2000/svg"
   xmlns="http://www.w3.org/2000/svg"
   xmlns:sodipodi="http://sodipodi.sourceforge.net/DTD/sodipodi-0.dtd"
   xmlns:inkscape="http://www.inkscape.org/namespaces/inkscape"
   version="1.1"
   x="0px"
   y="0px"
   viewBox="0 0 1000 1000"
   enable-background="new 0 0 1000 1000"
   xml:space="preserve"
   id="svg8"
   sodipodi:docname="pumpBodyOn.svg"
   inkscape:version="0.92.1 r15371"><defs
     id="defs12" /><sodipodi:namedview
     pagecolor="#ffffff"
     bordercolor="#666666"
     borderopacity="1"
     objecttolerance="10"
     gridtolerance="10"
     guidetolerance="10"
     inkscape:pageopacity="0"
     inkscape:pageshadow="2"
     inkscape:window-width="1920"
     inkscape:window-height="1017"
     id="namedview10"
     showgrid="false"
     inkscape:zoom="0.6675088"
     inkscape:cx="358.78746"
     inkscape:cy="445.76854"
     inkscape:window-x="1912"
     inkscape:window-y="-8"
     inkscape:window-maximized="1"
     inkscape:current-layer="g6" /><metadata
     id="metadata2"> Svg Vector Icons : http://www.onlinewebfonts.com/icon <rdf:RDF><cc:Work
     rdf:about=""><dc:format>image/svg+xml</dc:format><dc:type
       rdf:resource="http://purl.org/dc/dcmitype/StillImage" /><dc:title /></cc:Work></rdf:RDF></metadata><g
     id="g6"><path
       d="m 465.79432,499.79622 c 0,-19 15.4,-34.3 34.3,-34.3 18.9,0 34.3,15.4 34.3,34.3 0,19 -15.4,34.3 -34.3,34.3 -18.9,0 -34.3,-15.3 -34.3,-34.3 z m 154.4,-133.6 -67.1,68.7 c -11.9,-9.9 -26.6,-16.4 -42.7,-18.5 v -101.4 c -116.3,0 -143.9,64.8 -143.9,64.8 l 67.6,66 c -10.6,12.5 -17.6,28.1 -19.4,45.2 h -99.5 c 0,116.3 64.8,143.9 64.8,143.9 l 66.2,-67.9 c 12.6,10 28.1,16.4 45,18 v 99.7 c 116.3,0 143.9,-64.8 143.9,-64.8 l -69.1,-67.4 c 9.3,-12 15.6,-26.5 17.3,-42.4 h 101.5 c 0.2,-116.3 -64.6,-143.9 -64.6,-143.9 z m -120.1,185.1 c -28.4,0 -51.5,-23.1 -51.5,-51.4 0,-28.4 23.1,-51.4 51.5,-51.4 28.4,0 51.4,23.1 51.4,51.4 0,28.3 -23,51.4 -51.4,51.4 z m 84.7,-24 h 12 v 37.2 h -12 z m 22.1,-4.8 h 13.6 v 46.8 h -13.6 z m 26.1,-6.1 h 17.6 v 58.9 h -17.6 z m 29.7,-1.8 h 18 v 62.7 h -18 z m -228.5,70.5 h 37.2 v 12.1 h -37.2 z m -4.8,22.1 h 46.7 v 13.5 h -46.7 z m -6,26.1 h 58.9 v 17.6 h -58.9 z m -1.9,29.7 h 62.7 v 18.1 h -62.7 z m -20.2,-228 h 12 v 37.2 h -12 z m -23.6,-4.8 h 13.6 v 46.8 h -13.6 z m -30.1,-6 h 17.6 v 58.9 h -17.6 z m -30.2,-1.9 h 18 v 62.7 h -18 z m 212.9,-16.6 h 37.2 v 12 h -37.2 z m -4.8,-23.7 h 46.7 v 13.6 h -46.7 z m -6.1,-30.1 h 58.9 v 17.6 h -58.9 z m -1.8,-30.1 h 62.7 v 18.1 h -62.7 z"
       id="path4"
       inkscape:connector-curvature="0"
       style="fill:#4682b4;stroke:#4682b4"
       sodipodi:nodetypes="ssssscccccccccccccccccssssscccccccccccccccccccccccccccccccccccccccccccccccccccccccscccscccccccccccccccccccc" /></g></svg>