<?xml version="1.0" encoding="utf-8"?>
<!-- Svg Vector Icons : http://www.onlinewebfonts.com/icon -->
<!DOCTYPE svg PUBLIC "-//W3C//DTD SVG 1.1//EN" "http://www.w3.org/Graphics/SVG/1.1/DTD/svg11.dtd">
<svg version="1.1" xmlns="http://www.w3.org/2000/svg" xmlns:xlink="http://www.w3.org/1999/xlink" x="0px" y="0px" viewBox="0 0 1000 1000" enable-background="new 0 0 1000 1000" xml:space="preserve">
<metadata> Svg Vector Icons : http://www.onlinewebfonts.com/icon </metadata>
<g><path stroke="white" fill="white" d="M215.6,564.3c-1.9-9.5-3.8-18.1-5.2-26.7c-5.5-34.2-2.6-68,4.7-101.8c9.7-44.9,29-85,58.3-120c40.9-49,92.1-81.9,154.9-96.1c25.8-5.8,51.6-9,78-8.9c96.4,0.3,192.7-0.4,289.1,0.4c34.5,0.3,62.1,15.5,79.4,46.5c7.2,12.9,10,27.3,10.8,41.9c0.9,16.2,1,32.4,0,48.6c-2,34.7-16.7,62.3-48.3,78.8c-12.7,6.7-26.8,9.1-41.1,10c-6.6,0.5-13.2,0.1-19.9,0.1c1.8,10.4,3.9,20.4,5.2,30.5c4.3,32,1,63.4-5.8,94.9c-9.7,44.9-29.1,84.9-58.4,120c-40.9,48.9-91.8,82.1-154.6,95.7c-17.2,3.7-34.9,5.4-52.1,9.2c-13.6,3-27.2,2.9-40.9,2.9c-88.1,0-176.2,0.3-264.3-0.2c-23-0.1-44.5-6.7-61.8-22.9c-11.9-11.2-21.2-24.1-25.1-40.6c-3.2-13.3-5.1-26.5-4.6-40.2c0.5-14-0.4-28.2,1.2-42c2.1-17.9,7.6-34.8,20.2-48.6c11.3-12.4,24.1-22.5,40.8-26.6C189.1,565.9,201.7,562.5,215.6,564.3z M744,498.8c-0.1-137.2-111.5-248.4-248.7-248.2C358.1,250.7,247,362.1,247.1,499.2c0.1,137.2,111.5,248.4,248.7,248.2C633,747.3,744.1,636,744,498.8z M643.2,250.5c27,18.4,52.5,37.8,72.9,63.3c20.3,25.4,37.9,52.4,48.8,83.5c10.4,0,20.7,0,30.9,0c28.5-0.1,50.2-21.7,50.3-50.2c0.1-14.9,0-29.7,0-44.6c0-30.8-21.2-52-52-52c-48.7,0-97.5,0-146.2,0C646.4,250.5,644.8,250.5,643.2,250.5z M226.9,603.7c-7.6,0-15.2,0-22.8,0c-28.5,0.1-50.2,21.8-50.3,50.2c-0.1,15,0,30.1,0,45.1c0,30.1,21.4,51.4,51.6,51.4c47.6,0,95.2,0,142.8,0c1.6,0,3.1,0,4.7,0C294.5,715.5,252.7,666.6,226.9,603.7z M931.5,321.5c0-27.6-0.1-55.2,0-82.8c0.1-14.3,10.6-26.1,24.9-28.5c13.6-2.3,27.4,6.1,31.9,19.5c1.1,3.2,1.6,6.8,1.6,10.2c0.1,54.4,0.1,108.8,0,163.1c0,16.9-12.8,29.9-29.1,30c-16.5,0.1-29.3-13.1-29.4-30.2C931.4,375.7,931.5,348.6,931.5,321.5z M10,677.5c0-27.6-0.1-55.2,0-82.8c0.1-14.3,10.6-26.1,24.9-28.5c13.6-2.3,27.4,6.1,31.9,19.5c1.1,3.2,1.6,6.8,1.6,10.2c0.1,54.4,0.1,108.8,0,163.1c0,16.9-12.8,29.9-29.1,30c-16.5,0.1-29.3-13.1-29.4-30.2C10,731.8,10,704.7,10,677.5z M461.3,496.8c0-19,15.4-34.3,34.3-34.3s34.3,15.4,34.3,34.3c0,19-15.4,34.3-34.3,34.3C476.7,531.1,461.3,515.8,461.3,496.8L461.3,496.8z M615.7,363.2l-67.1,68.7c-11.9-9.9-26.6-16.4-42.7-18.5V312c-116.3,0-143.9,64.8-143.9,64.8l67.6,66C419,455.3,412,470.9,410.2,488h-99.5c0,116.3,64.8,143.9,64.8,143.9l66.2-67.9c12.6,10,28.1,16.4,45,18v99.7c116.3,0,143.9-64.8,143.9-64.8l-69.1-67.4c9.3-12,15.6-26.5,17.3-42.4h101.5C680.5,390.8,615.7,363.2,615.7,363.2z M495.6,548.3c-28.4,0-51.5-23.1-51.5-51.4c0-28.4,23.1-51.4,51.5-51.4s51.4,23.1,51.4,51.4C547,525.2,524,548.3,495.6,548.3z M580.3,524.3h12v37.2h-12V524.3z M602.4,519.5h13.6v46.8h-13.6V519.5z M628.5,513.4h17.6v58.9h-17.6V513.4z M658.2,511.6h18v62.7h-18V511.6z M429.7,582.1h37.2v12.1h-37.2V582.1z M424.9,604.2h46.7v13.5h-46.7V604.2L424.9,604.2z M418.9,630.3h58.9v17.6h-58.9V630.3z M417,660h62.7v18.1H417V660z M396.8,432h12v37.2h-12V432L396.8,432z M373.2,427.2h13.6V474h-13.6V427.2L373.2,427.2z M343.1,421.2h17.6v58.9h-17.6V421.2z M312.9,419.3h18V482h-18V419.3z M525.8,402.7H563v12h-37.2V402.7z M521,379h46.7v13.6H521V379L521,379z M514.9,348.9h58.9v17.6h-58.9V348.9L514.9,348.9z M513.1,318.8h62.7v18.1h-62.7V318.8L513.1,318.8z"/></g>
</svg>