<?xml version="1.0" encoding="UTF-8" standalone="no"?>
<!-- Svg Vector Icons : http://www.onlinewebfonts.com/icon -->

<svg
   xmlns:dc="http://purl.org/dc/elements/1.1/"
   xmlns:cc="http://creativecommons.org/ns#"
   xmlns:rdf="http://www.w3.org/1999/02/22-rdf-syntax-ns#"
   xmlns:svg="http://www.w3.org/2000/svg"
   xmlns="http://www.w3.org/2000/svg"
   xmlns:sodipodi="http://sodipodi.sourceforge.net/DTD/sodipodi-0.dtd"
   xmlns:inkscape="http://www.inkscape.org/namespaces/inkscape"
   version="1.1"
   x="0px"
   y="0px"
   viewBox="0 0 1000 1000"
   enable-background="new 0 0 1000 1000"
   xml:space="preserve"
   id="svg8"
   sodipodi:docname="pumpOn.svg"
   inkscape:version="0.92.1 r15371"><defs
     id="defs12" /><sodipodi:namedview
     pagecolor="#ffffff"
     bordercolor="#666666"
     borderopacity="1"
     objecttolerance="10"
     gridtolerance="10"
     guidetolerance="10"
     inkscape:pageopacity="0"
     inkscape:pageshadow="2"
     inkscape:window-width="1920"
     inkscape:window-height="1017"
     id="namedview10"
     showgrid="false"
     inkscape:zoom="0.6675088"
     inkscape:cx="884.18828"
     inkscape:cy="449.81275"
     inkscape:window-x="1912"
     inkscape:window-y="-8"
     inkscape:window-maximized="1"
     inkscape:current-layer="g6" /><metadata
     id="metadata2"> Svg Vector Icons : http://www.onlinewebfonts.com/icon <rdf:RDF><cc:Work
     rdf:about=""><dc:format>image/svg+xml</dc:format><dc:type
       rdf:resource="http://purl.org/dc/dcmitype/StillImage" /></cc:Work></rdf:RDF></metadata><g
     id="g6"><path
       d="m 215.6,564.3 c -1.9,-9.5 -3.8,-18.1 -5.2,-26.7 -5.5,-34.2 -2.6,-68 4.7,-101.8 9.7,-44.9 29,-85 58.3,-120 40.9,-49 92.1,-81.9 154.9,-96.1 25.8,-5.8 51.6,-9 78,-8.9 96.4,0.3 192.7,-0.4 289.1,0.4 34.5,0.3 62.1,15.5 79.4,46.5 7.2,12.9 10,27.3 10.8,41.9 0.9,16.2 1,32.4 0,48.6 -2,34.7 -16.7,62.3 -48.3,78.8 -12.7,6.7 -26.8,9.1 -41.1,10 -6.6,0.5 -13.2,0.1 -19.9,0.1 1.8,10.4 3.9,20.4 5.2,30.5 4.3,32 1,63.4 -5.8,94.9 -9.7,44.9 -29.1,84.9 -58.4,120 -40.9,48.9 -91.8,82.1 -154.6,95.7 -17.2,3.7 -34.9,5.4 -52.1,9.2 -13.6,3 -27.2,2.9 -40.9,2.9 -88.1,0 -176.2,0.3 -264.3,-0.2 -23,-0.1 -44.5,-6.7 -61.8,-22.9 -11.9,-11.2 -21.2,-24.1 -25.1,-40.6 -3.2,-13.3 -5.1,-26.5 -4.6,-40.2 0.5,-14 -0.4,-28.2 1.2,-42 2.1,-17.9 7.6,-34.8 20.2,-48.6 11.3,-12.4 24.1,-22.5 40.8,-26.6 13,-3.3 25.6,-6.7 39.5,-4.9 z M 744,498.8 C 743.9,361.6 632.5,250.4 495.3,250.6 358.1,250.7 247,362.1 247.1,499.2 247.2,636.4 358.6,747.6 495.8,747.4 633,747.3 744.1,636 744,498.8 Z M 643.2,250.5 c 27,18.4 52.5,37.8 72.9,63.3 20.3,25.4 37.9,52.4 48.8,83.5 h 30.9 c 28.5,-0.1 50.2,-21.7 50.3,-50.2 0.1,-14.9 0,-29.7 0,-44.6 0,-30.8 -21.2,-52 -52,-52 H 647.9 Z M 226.9,603.7 h -22.8 c -28.5,0.1 -50.2,21.8 -50.3,50.2 -0.1,15 0,30.1 0,45.1 0,30.1 21.4,51.4 51.6,51.4 h 142.8 4.7 C 294.5,715.5 252.7,666.6 226.9,603.7 Z M 931.5,321.5 c 0,-27.6 -0.1,-55.2 0,-82.8 0.1,-14.3 10.6,-26.1 24.9,-28.5 13.6,-2.3 27.4,6.1 31.9,19.5 1.1,3.2 1.6,6.8 1.6,10.2 0.1,54.4 0.1,108.8 0,163.1 0,16.9 -12.8,29.9 -29.1,30 -16.5,0.1 -29.3,-13.1 -29.4,-30.2 0,-27.1 0.1,-54.2 0.1,-81.3 z M 10,677.5 c 0,-27.6 -0.1,-55.2 0,-82.8 0.1,-14.3 10.6,-26.1 24.9,-28.5 13.6,-2.3 27.4,6.1 31.9,19.5 1.1,3.2 1.6,6.8 1.6,10.2 0.1,54.4 0.1,108.8 0,163.1 0,16.9 -12.8,29.9 -29.1,30 C 22.8,789.1 10,775.9 9.9,758.8 10,731.8 10,704.7 10,677.5 Z"
       id="path4"
       inkscape:connector-curvature="0"
       style="fill:#4682b4;stroke:#4682b4"
       sodipodi:nodetypes="ccccccccccccccccccsccccccccscscscccccsscccccsscccscccccccsscccccccs" /></g></svg>